The Bad Lieutenant: Port of Call - New Orleans *2009*[BluRay][1080p][ENG, POL]

General information:
Country: USA
Release: 4 September 2009 (Venice Film Festival)
Genre: Crime, Thriller 
Director: Werner Herzog
Screenplay: William M. Finkelstein
Original Music: Klaus Badelt 
Cinematography by: Peter Zeitlinger
Duration: 1h 56mn
Language: English, Polish
Subtitles: English, Polish
Rating: 6.5/10 - 4091 votes 

Cast:
Nicolas Cage  ...  Terence McDonagh  
Eva Mendes  ...  Frankie Donnenfeld  
Val Kilmer  ...  Stevie Pruit  
Xzibit  ...  Big Fate (as Alvin 'Xzibit' Joiner)  
Fairuza Balk  ...  Heidi  
Shawn Hatosy  ...  Armand Benoit  
Jennifer Coolidge  ...  Genevieve  
Tom Bower  ...  Pat McDonough  
Vondie Curtis-Hall  ...  James Brasser  
Brad Dourif  ...  Ned Schoenholtz  
Denzel Whitaker  ...  Daryl  
Irma P. Hall  ...  Binnie Rogers  
Shea Whigham  ...  Justin  
Michael Shannon  ...  Mundt  
Joe Nemmers  ...  Officer Larry Moy  

Plot:
Terence McDonagh is a drug- and gambling-addled detective in post-Katrina New Orleans investigating the killing of five Senegalese immigrants. 

Specifications:
General
Format                           : Matroska
Overall bit rate                 : 9 156 Kbps

Video
Format                           : AVC
Format/Info                      : Advanced Video Codec
Format profile                   : High@L4.1
Format settings, CABAC           : Yes
Format settings, ReFrames        : 3 frames
Format settings, GOP             : M=3, N=33
Muxing mode                      : Container profile=Unknown@4.1
Codec ID                         : V_MPEG4/ISO/AVC
Bit rate                         : 7 879 Kbps
Width                            : 1 920 pixels
Height                           : 1 080 pixels
Display aspect ratio             : 16:9
Frame rate                       : 25.000 fps

Audio 1
Format                           : AC-3
Format/Info                      : Audio Coding 3
Mode extension                   : CM (complete main)
Codec ID                         : A_AC3
Bit rate mode                    : Constant
Bit rate                         : 640 Kbps
Channel(s)                       : 6 channels
Channel positions                : Front: L C R, Side: L R, LFE
Sampling rate                    : 48.0 KHz
Stream size                      : 535 MiB (7%)
Title                            : English

Audio 2
Format                           : AC-3
Format/Info                      : Audio Coding 3
Mode extension                   : CM (complete main)
Codec ID                         : A_AC3
Bit rate mode                    : Constant
Bit rate                         : 640 Kbps
Channel(s)                       : 6 channels
Channel positions                : Front: L C R, Side: L R, LFE
Sampling rate                    : 48.0 KHz
Stream size                      : 535 MiB (7%)
Title                            : Polish
Language                         : Polish

Text 1
Format                           : UTF-8
Codec ID                         : S_TEXT/UTF8
Codec ID/Info                    : UTF-8 Plain Text
Title                            : English

Text 2
Format                           : UTF-8
Codec ID                         : S_TEXT/UTF8
Codec ID/Info                    : UTF-8 Plain Text
Title                            : Polish
Language                         : Polish
